<svg aria-hidden="true" style="position: absolute; width: 0; height: 0; overflow: hidden;" version="1.1" xmlns="http://www.w3.org/2000/svg" xmlns:xlink="http://www.w3.org/1999/xlink">
<defs>
<symbol id="icon-star" viewBox="0 0 32 32">
<path fill="#bea69e" style="fill: var(--color1, #bea69e); stroke: var(--color1, #bea69e)" stroke="#bea69e" stroke-linejoin="round" stroke-linecap="round" stroke-miterlimit="4" stroke-width="2.4" d="M16 3.2l3.955 7.899 8.845 1.274-6.4 6.145 1.51 8.681-7.91-4.101-7.91 4.101 1.51-8.681-6.4-6.145 8.845-1.274 3.955-7.899z"></path>
</symbol>
<symbol id="icon-starr" viewBox="0 0 32 32">
<path fill="#fff" style="fill: var(--color2, #fff)" opacity="0.2" stroke-linejoin="round" stroke-linecap="round" stroke-miterlimit="4" stroke-width="1.6" stroke="#000" d="M16 3.2l3.955 7.899 8.845 1.274-6.4 6.145 1.51 8.681-7.91-4.101-7.91 4.101 1.51-8.681-6.4-6.145 8.845-1.274 3.955-7.899z"></path>
<symbol id="icon-camera" viewBox="0 0 43 32">
<path fill="#bea69e" opacity="0.4" style="fill: var(--color1, #bea69e)" d="M28 17.333c0 1.768-0.702 3.464-1.953 4.714s-2.946 1.953-4.714 1.953c-1.768 0-3.464-0.702-4.714-1.953s-1.953-2.946-1.953-4.714c0-1.768 0.702-3.464 1.953-4.714s2.946-1.953 4.714-1.953c1.768 0 3.464 0.702 4.714 1.953s1.953 2.946 1.953 4.714z"></path>
<path fill="#bea69e" opacity="0.4" style="fill: var(--color1, #bea69e)" d="M5.333 5.333c-1.414 0-2.771 0.562-3.771 1.562s-1.562 2.357-1.562 3.771v16c0 1.414 0.562 2.771 1.562 3.771s2.357 1.562 3.771 1.562h32c1.414 0 2.771-0.562 3.771-1.562s1.562-2.357 1.562-3.771v-16c0-1.414-0.562-2.771-1.562-3.771s-2.357-1.562-3.771-1.562h-3.125c-1.414-0-2.771-0.562-3.771-1.563l-2.208-2.208c-1-1-2.356-1.562-3.771-1.563h-6.251c-1.414 0-2.771 0.562-3.771 1.563l-2.208 2.208c-1 1-2.356 1.562-3.771 1.563h-3.125zM6.667 10.667c-0.354 0-0.693-0.14-0.943-0.391s-0.391-0.589-0.391-0.943c0-0.354 0.14-0.693 0.391-0.943s0.589-0.391 0.943-0.391c0.354 0 0.693 0.14 0.943 0.391s0.391 0.589 0.391 0.943c0 0.354-0.14 0.693-0.391 0.943s-0.589 0.391-0.943 0.391zM30.667 17.333c0 2.475-0.983 4.849-2.734 6.6s-4.124 2.734-6.6 2.734c-2.475 0-4.849-0.983-6.6-2.734s-2.734-4.124-2.734-6.6c0-2.475 0.983-4.849 2.734-6.6s4.124-2.734 6.6-2.734c2.475 0 4.849 0.983 6.6 2.734s2.734 4.124 2.734 6.6z"></path>
</symbol>
<symbol id="icon-close" viewBox="0 0 32 32">
<path stroke-width="3" stroke-miterlimit="4" stroke-linecap="round" stroke-linejoin="round" d="M24 8l-16 16"></path>
<path stroke-width="3" stroke-miterlimit="4" stroke-linecap="round" stroke-linejoin="round" d="M8 8l16 16"></path>
</symbol>
<symbol id="icon-logo" viewBox="0 0 246 32">
<path fill="#fff" style="fill: var(--color2, #fff)" d="M20.668 18.151h-14.002v13.235h-6.666v-31.386h22.682v5.483h-16.017v7.137h14.002v5.53z"></path>
<path fill="#fff" style="fill: var(--color2, #fff)" d="M34.18 26.848c3.788 0 5.706-2.363 5.706-7.090s-1.918-7.043-5.706-7.043c-3.788 0-5.707 2.316-5.707 7.043s1.918 7.090 5.707 7.090zM34.18 32c-7.625 0-12.132-5.010-12.132-12.242 0-7.374 4.652-12.242 12.132-12.242 7.385 0 11.988 4.821 11.988 12.242 0 7.374-4.652 12.242-11.988 12.242z"></path>
<path fill="#fff" style="fill: var(--color2, #fff)" d="M63.387 22.972h6.282c-0.671 5.388-5.131 9.028-10.838 9.028-6.426 0-10.838-4.207-10.838-12.526s4.412-11.959 11.029-11.959c6.138 0 10.31 3.45 10.694 8.934h-6.282c-0.336-2.411-2.11-3.829-4.46-3.829-2.637 0-4.795 1.654-4.795 6.712s2.158 7.515 4.604 7.515 4.364-1.371 4.604-3.876z"></path>
<path fill="#fff" style="fill: var(--color2, #fff)" d="M92.756 31.386h-5.898v-3.262c-1.63 2.647-4.076 3.876-7.337 3.876-4.699 0-8.008-3.451-8.008-8.555v-15.315h6.234v14.369c0 2.931 1.343 4.349 3.98 4.349 3.165 0 4.843-2.222 4.843-5.294v-13.424h6.186v23.256z"></path>
<path fill="#fff" style="fill: var(--color2, #fff)" d="M115.678 15.173h-5.994c-0.336-2.269-1.582-3.072-4.412-3.072-2.35 0-3.693 0.567-3.693 1.938s1.295 1.938 3.836 2.647c2.685 0.756 5.227 1.276 7.049 1.985 2.494 0.993 3.884 2.6 3.884 5.625 0 4.821-3.596 7.705-10.31 7.705-7.241 0-11.269-3.356-11.365-8.083h6.426c0 2.174 1.87 3.451 4.891 3.451 2.206 0 4.172-0.662 4.172-2.411 0-1.654-1.774-2.174-3.788-2.647-3.98-0.945-6.186-1.607-7.864-2.647-2.206-1.371-2.973-3.167-2.973-5.247 0-3.923 2.733-6.901 9.926-6.901 6.809 0 9.878 2.647 10.214 7.657z"></path>
<path fill="#fff" style="fill: var(--color2, #fff)" d="M124.63 31.386h-6.665v-6.381h6.665v6.381z"></path>
<path fill="#fff" style="fill: var(--color2, #fff)" d="M147.577 18.151h-14.002v13.235h-6.666v-31.386h22.682v5.483h-16.016v7.137h14.002v5.53z"></path>
<path fill="#fff" style="fill: var(--color2, #fff)" d="M156.561 31.386h-6.234v-23.256h5.85v2.789c2.062-3.12 4.46-3.403 7.001-3.403h0.815v6.287c-0.575-0.095-1.151-0.142-1.726-0.142-3.836 0-5.707 1.891-5.707 5.625v12.101z"></path>
<path fill="#fff" style="fill: var(--color2, #fff)" d="M178.854 22.547l0.048-2.553c-0.623 0.614-1.726 0.945-4.028 1.371-3.549 0.662-4.699 1.654-4.699 3.64 0 1.749 1.055 2.6 3.021 2.6 3.213 0 5.611-2.316 5.659-5.058zM185.135 31.386h-5.802c-0.192-0.567-0.336-1.371-0.384-2.080-1.487 1.607-3.98 2.694-7.145 2.694-5.371 0-7.864-2.6-7.864-6.381 0-6.712 4.556-7.468 10.837-8.319 3.117-0.425 3.98-1.040 3.98-2.647 0-1.513-1.534-2.411-3.98-2.411-2.829 0-3.98 1.371-4.268 3.451h-5.802c0.096-4.821 2.781-8.177 10.358-8.177 7.481 0 10.070 3.309 10.070 9.17v14.7z"></path>
<path fill="#fff" style="fill: var(--color2, #fff)" d="M221.644 31.386h-6.090v-14.086c0-2.789-1.486-4.774-3.692-4.774-2.302 0-3.98 2.127-3.98 4.963v13.897h-6.234v-13.991c0-3.734-1.008-4.679-3.741-4.679-2.494 0-3.788 1.513-3.788 4.538v14.133h-6.234v-23.256h5.85v3.403c1.582-3.072 3.788-4.018 6.905-4.018 3.214 0 4.748 0.993 6.57 3.687 1.294-2.552 3.404-3.687 6.378-3.687 4.748 0 8.056 3.403 8.056 7.752v16.118z"></path>
<path fill="#fff" style="fill: var(--color2, #fff)" d="M229.936 17.489h9.638c-0.096-3.451-2.398-5.105-4.844-5.105-2.492 0-4.554 1.891-4.794 5.105zM246 21.365h-16.256c0.192 3.498 2.206 5.767 5.274 5.767 2.014 0 3.788-0.993 4.22-2.6h6.426c-1.438 4.774-5.322 7.468-10.358 7.468-7.864 0-11.796-4.254-11.796-12.668 0-7.185 4.172-11.817 11.412-11.817 7.242 0 11.078 4.632 11.078 13.849z"></path>
</symbol>
<symbol id="icon-menu" viewBox="0 0 47 32">
<path fill="none" stroke="#fff" stroke-width="2.9091" stroke-miterlimit="4" stroke-linecap="round" stroke-linejoin="miter" style="stroke: var(--color2, #fff)" d="M8.538 5.333h36.553"></path>
<path fill="none" stroke="#fff" stroke-width="2.9091" stroke-miterlimit="4" stroke-linecap="round" stroke-linejoin="miter" style="stroke: var(--color2, #fff)" d="M8.538 24.727h36.553"></path>
<path fill="none" stroke="#fff" stroke-width="2.9091" stroke-miterlimit="4" stroke-linecap="round" stroke-linejoin="miter" style="stroke: var(--color2, #fff)" d="M19.668 15.030h25.423"></path>
</symbol>
<symbol id="icon-star" viewBox="0 0 32 32">
<path stroke-width="2.4" stroke-miterlimit="4" stroke-linecap="round" stroke-linejoin="round" d="M16 2.667l4.12 8.347 9.213 1.347-6.667 6.493 1.573 9.173-8.24-4.333-8.24 4.333 1.573-9.173-6.667-6.493 9.213-1.347 4.12-8.347z"></path>
</symbol>
<symbol id="icon-Ellipse-1" viewBox="0 0 32 32">
<path d="M32 16c0 8.837-7.163 16-16 16s-16-7.163-16-16c0-8.837 7.163-16 16-16s16 7.163 16 16z"></path>
</symbol>
<symbol id="icon-arrow-narrow-up-right" viewBox="0 0 32 32">
<path fill="none" stroke="#777" style="stroke: var(--color1, #777)" stroke-linejoin="round" stroke-linecap="round" stroke-miterlimit="4" stroke-width="2.0800" d="M8 24l16-16"></path>
<path fill="none" stroke="#777" style="stroke: var(--color1, #777)" stroke-linejoin="round" stroke-linecap="round" stroke-miterlimit="4" stroke-width="2.0800" d="M13.333 8h10.667v10.667"></path>
</symbol>
</defs>
</svg>
