<svg xmlns="http://www.w3.org/2000/svg" aria-hidden="true" style="position:absolute;width:0;height:0;overflow:hidden">
  <defs>
    <symbol id="icon-camera" viewBox="0 0 43 32">
      <path d="M28 17.333a6.67 6.67 0 0 1-11.381 4.714 6.67 6.67 0 0 1 0-9.428 6.67 6.67 0 0 1 9.428 0A6.67 6.67 0 0 1 28 17.333z" opacity=".4"/>
      <path d="M5.333 5.333A5.334 5.334 0 0 0 0 10.666v16a5.334 5.334 0 0 0 5.333 5.333h32a5.334 5.334 0 0 0 5.333-5.333v-16a5.334 5.334 0 0 0-5.333-5.333h-3.125a5.33 5.33 0 0 1-3.771-1.563l-2.208-2.208c-1-1-2.356-1.562-3.771-1.563h-6.251a5.33 5.33 0 0 0-3.771 1.563L12.228 3.77c-1 1-2.356 1.562-3.771 1.563H5.332zm1.334 5.334a1.335 1.335 0 0 1-.943-2.277 1.335 1.335 0 0 1 1.886 0 1.335 1.335 0 0 1 0 1.886c-.251.25-.589.391-.943.391zm24 6.666a9.333 9.333 0 1 1-18.667 0 9.333 9.333 0 0 1 18.667 0z" opacity=".4"/>
    </symbol>
    <symbol id="icon-close" viewBox="0 0 32 32">
      <path stroke-linecap="round" stroke-linejoin="round" stroke-width="3" d="M24 8 8 24M8 8l16 16"/>
    </symbol>
    <symbol id="icon-logo" viewBox="0 0 246 32">
      <path fill="#fff" d="M20.668 18.151H6.666v13.235H0V0h22.682v5.483H6.665v7.137h14.002v5.53zM34.18 26.848c3.788 0 5.706-2.363 5.706-7.09s-1.918-7.043-5.706-7.043c-3.788 0-5.707 2.316-5.707 7.043s1.918 7.09 5.707 7.09zm0 5.152c-7.625 0-12.132-5.01-12.132-12.242 0-7.374 4.652-12.242 12.132-12.242 7.385 0 11.988 4.821 11.988 12.242C46.168 27.132 41.516 32 34.18 32zM63.387 22.972h6.282C68.998 28.36 64.538 32 58.831 32c-6.426 0-10.838-4.207-10.838-12.526S52.405 7.515 59.022 7.515c6.138 0 10.31 3.45 10.694 8.934h-6.282c-.336-2.411-2.11-3.829-4.46-3.829-2.637 0-4.795 1.654-4.795 6.712s2.158 7.515 4.604 7.515 4.364-1.371 4.604-3.876zM92.756 31.386h-5.898v-3.262C85.228 30.771 82.782 32 79.521 32c-4.699 0-8.008-3.451-8.008-8.555V8.13h6.234v14.369c0 2.931 1.343 4.349 3.98 4.349 3.165 0 4.843-2.222 4.843-5.294V8.13h6.186v23.256zM115.678 15.173h-5.994c-.336-2.269-1.582-3.072-4.412-3.072-2.35 0-3.693.567-3.693 1.938s1.295 1.938 3.836 2.647c2.685.756 5.227 1.276 7.049 1.985 2.494.993 3.884 2.6 3.884 5.625 0 4.821-3.596 7.705-10.31 7.705-7.241 0-11.269-3.356-11.365-8.083h6.426c0 2.174 1.87 3.451 4.891 3.451 2.206 0 4.172-.662 4.172-2.411 0-1.654-1.774-2.174-3.788-2.647-3.98-.945-6.186-1.607-7.864-2.647-2.206-1.371-2.973-3.167-2.973-5.247 0-3.923 2.733-6.901 9.926-6.901 6.809 0 9.878 2.647 10.214 7.657zM124.63 31.386h-6.665v-6.381h6.665v6.381zM147.577 18.151h-14.002v13.235h-6.666V0h22.682v5.483h-16.016v7.137h14.002v5.53zM156.561 31.386h-6.234V8.13h5.85v2.789c2.062-3.12 4.46-3.403 7.001-3.403h.815v6.287a10.577 10.577 0 0 0-1.726-.142c-3.836 0-5.707 1.891-5.707 5.625v12.101zM178.854 22.547l.048-2.553c-.623.614-1.726.945-4.028 1.371-3.549.662-4.699 1.654-4.699 3.64 0 1.749 1.055 2.6 3.021 2.6 3.213 0 5.611-2.316 5.659-5.058zm6.281 8.839h-5.802c-.192-.567-.336-1.371-.384-2.08-1.487 1.607-3.98 2.694-7.145 2.694-5.371 0-7.864-2.6-7.864-6.381 0-6.712 4.556-7.468 10.837-8.319 3.117-.425 3.98-1.04 3.98-2.647 0-1.513-1.534-2.411-3.98-2.411-2.829 0-3.98 1.371-4.268 3.451h-5.802c.096-4.821 2.781-8.177 10.358-8.177 7.481 0 10.07 3.309 10.07 9.17v14.7zM221.644 31.386h-6.09V17.3c0-2.789-1.486-4.774-3.692-4.774-2.302 0-3.98 2.127-3.98 4.963v13.897h-6.234V17.395c0-3.734-1.008-4.679-3.741-4.679-2.494 0-3.788 1.513-3.788 4.538v14.133h-6.234V8.131h5.85v3.403c1.582-3.072 3.788-4.018 6.905-4.018 3.214 0 4.748.993 6.57 3.687 1.294-2.552 3.404-3.687 6.378-3.687 4.748 0 8.056 3.403 8.056 7.752v16.118zM229.936 17.489h9.638c-.096-3.451-2.398-5.105-4.844-5.105-2.492 0-4.554 1.891-4.794 5.105zM246 21.365h-16.256c.192 3.498 2.206 5.767 5.274 5.767 2.014 0 3.788-.993 4.22-2.6h6.426C244.226 29.306 240.342 32 235.306 32c-7.864 0-11.796-4.254-11.796-12.668 0-7.185 4.172-11.817 11.412-11.817 7.242 0 11.078 4.632 11.078 13.849z" style="fill:var(--color2, #fff)"/>
    </symbol>
    <symbol id="icon-menu" viewBox="0 0 47 32">
      <path fill="none" stroke="#fff" stroke-linecap="round" stroke-width="2.909" d="M8.538 5.333h36.553M8.538 24.727h36.553M19.668 15.03h25.423" style="stroke:var(--color2, #fff)"/>
    </symbol>
    <symbol id="icon-star1" viewBox="0 0 32 32">
      <path stroke-linecap="round" stroke-linejoin="round" stroke-width="2.4" d="m16 2.667 4.12 8.347 9.213 1.347-6.667 6.493 1.573 9.173-8.24-4.333-8.24 4.333 1.573-9.173-6.667-6.493 9.213-1.347 4.12-8.347z"/>
    </symbol>
    <symbol id="icon-arrow-narrow-up-right" viewBox="0 0 32 32">
      <path fill="none" stroke-linecap="round" stroke-linejoin="round" stroke-width="2.08" d="M8 24 24 8M13.333 8H24v10.667"/>
    </symbol>
    <symbol id="icon-star" viewBox="0 0 32 32">
      <path fill="#bea69e" stroke="#bea69e" stroke-linecap="round" stroke-linejoin="round" stroke-width="2.4" d="m16 3.2 3.955 7.899 8.845 1.274-6.4 6.145 1.51 8.681L16 23.098l-7.91 4.101 1.51-8.681-6.4-6.145 8.845-1.274L16 3.2z" style="fill:var(--color1, #bea69e);stroke:var(--color1, #bea69e)"/>
    </symbol>
    <symbol id="icon-starr" viewBox="0 0 32 32">
      <path fill="#fff" stroke="#000" stroke-linecap="round" stroke-linejoin="round" stroke-width="1.6" d="m16 3.2 3.955 7.899 8.845 1.274-6.4 6.145 1.51 8.681L16 23.098l-7.91 4.101 1.51-8.681-6.4-6.145 8.845-1.274L16 3.2z" opacity=".2" style="fill:var(--color2, #fff)"/>
    </symbol>
    <symbol xmlns="http://www.w3.org/2000/svg" id="icon-line" viewBox="0 0 1440 1">
      <path stroke="#fff" stroke-opacity=".2" d="M0 .5h1440"/>
    </symbol>
  </defs>
</svg>
